<?xml version="1.0" encoding="UTF-8" standalone="no"?><!DOCTYPE svg PUBLIC "-//W3C//DTD SVG 1.1//EN" "http://www.w3.org/Graphics/SVG/1.1/DTD/svg11.dtd"><svg width="100%" height="100%" viewBox="0 0 37 36" version="1.1" xmlns="http://www.w3.org/2000/svg" xmlns:xlink="http://www.w3.org/1999/xlink" xml:space="preserve" xmlns:serif="http://www.serif.com/" style="fill-rule:evenodd;clip-rule:evenodd;stroke-linejoin:round;stroke-miterlimit:2;"><rect id="Page-3" serif:id="Page 3" x="0.159" y="0" width="35.978" height="35.963" style="fill:none;"/><clipPath id="_clip1"><rect x="0.159" y="0" width="35.978" height="35.963"/></clipPath><g clip-path="url(#_clip1)"><g id="Layer-1" serif:id="Layer 1"><path d="M20.417,17.982c0.007,-1.251 -1.018,-2.277 -2.27,-2.27c-1.258,-0 -2.276,1.019 -2.276,2.277c0,1.245 1.025,2.27 2.269,2.27c1.259,-0 2.277,-1.018 2.277,-2.277" style="fill:#ef6f31;fill-rule:nonzero;"/><path d="M16.259,21.857l-16.101,14.106l14.114,-16.093c0.417,0.87 1.117,1.57 1.987,1.987" style="fill:#ef6f31;fill-rule:nonzero;"/><path d="M20.035,21.857c0.87,-0.417 1.57,-1.117 1.987,-1.987l14.107,16.101l-16.094,-14.114Z" style="fill:#ef6f31;fill-rule:nonzero;"/><path d="M22.023,16.094c-0.417,-0.87 -1.117,-1.57 -1.987,-1.987l16.1,-14.107l-14.113,16.094Z" style="fill:#ef6f31;fill-rule:nonzero;"/><path d="M14.273,16.094l-14.114,-16.094l16.101,14.107c-0.87,0.417 -1.57,1.117 -1.987,1.987" style="fill:#ef6f31;fill-rule:nonzero;"/></g></g></svg>